<svg xmlns:dc="http://purl.org/dc/elements/1.1/" xmlns:cc="http://creativecommons.org/ns#" xmlns:rdf="http://www.w3.org/1999/02/22-rdf-syntax-ns#" xmlns:svg="http://www.w3.org/2000/svg" xmlns="http://www.w3.org/2000/svg" xmlns:sodipodi="http://sodipodi.sourceforge.net/DTD/sodipodi-0.dtd" xmlns:inkscape="http://www.inkscape.org/namespaces/inkscape" viewBox="0 0 100 125" version="1.1" x="0px" y="0px"><g transform="translate(0,-952.36216)"><path style="opacity:1;fill:#ffffff;fill-opacity:1;stroke:none;stroke-width:20;stroke-linecap:round;stroke-linejoin:round;stroke-miterlimit:4;stroke-dasharray:none;stroke-opacity:1" d="m 15.200705,957.36216 0,8.2612 7.71126,0 0,34.1241 -4.14228,0 0,8.09554 16.56931,0 0,-8.09554 -8.85823,0 0,-34.1241 7.32894,0 0,-8.2612 -18.609,0 z m 20.3934,0 0,8.2612 1.7844,0 0,-8.2612 -1.7844,0 z m 3.5688,0 0,8.2612 1.7844,0 0,-8.2612 -1.7844,0 z m 3.5688,0 0,8.2612 1.78423,0 0,9.0165 -7.28206,0 2.6766,16.0911 10.99531,0 2.6766,-16.0911 -7.28205,0 0,-9.0165 -1.78422,0 0,-8.2612 -1.78441,0 z m 3.56881,0 0,8.2612 18.03515,0 0,34.1241 -8.85839,0 0,8.09554 16.56948,0 0,-8.09554 -4.14229,0 0,-34.1241 7.71109,0 0,-3.2384 3.25357,0 0,3.2536 a 0.89228941,0.89228941 0 0 0 0.8922,0.8922 l 4.14577,0 0.8922,0 0,-1.7844 -0.8922,0 -3.25357,0 0,-3.2536 a 0.89228941,0.89228941 0 0 0 -0.8922,-0.8922 l -4.14577,0 0,-3.2384 -29.31504,0 z m -9.17712,42.3853 0,8.09554 16.56948,0 0,-8.09554 -16.56948,0 z m -14.21143,9.87994 0,8.0953 8.28475,0 0,-8.0953 -8.28475,0 z m 10.06915,0 0,8.0953 16.56948,0 0,-8.0953 -16.56948,0 z m 18.35388,0 0,8.0953 16.5693,0 0,-8.0953 -16.5693,0 z m -28.42303,9.8797 0,8.0955 16.56949,0 0,-8.0955 -16.56949,0 z m 18.35389,0 0,8.0955 16.56947,0 0,-8.0955 -16.56947,0 z m 18.35388,0 0,8.0955 8.28456,0 0,-8.0955 -8.28456,0 z m -36.70777,9.8799 0,8.0953 8.28475,0 0,-8.0953 -8.28475,0 z m 10.06915,0 0,8.0953 16.56948,0 0,-8.0953 -16.56948,0 z m 18.35388,0 0,8.0953 16.5693,0 0,-8.0953 -16.5693,0 z m -28.42303,9.8797 0,8.0955 16.56949,0 0,-8.0955 -16.56949,0 z m 18.35389,0 0,8.0955 16.56947,0 0,-8.0955 -16.56947,0 z m 18.35388,0 0,8.0955 8.28456,0 0,-8.0955 -8.28456,0 z"/></g></svg>
